<svg xmlns="http://www.w3.org/2000/svg" width="18" height="18" viewBox="0 0 18 18"><defs><style>.a{fill:none;}.b{fill:#5c616c;}</style></defs><rect class="a" width="18" height="18"/><path class="b" d="M15.834.9A.339.339,0,0,0,15.5.893l-3.671,2v-1.2A1.7,1.7,0,0,0,10.133,0H1.7A1.7,1.7,0,0,0,0,1.695V8.387A1.7,1.7,0,0,0,1.7,10.082h8.437a1.7,1.7,0,0,0,1.695-1.695V7.206l3.671,2a.339.339,0,0,0,.5-.3V1.191A.339.339,0,0,0,15.835.9ZM11.15,8.387A1.018,1.018,0,0,1,10.133,9.4H1.7A1.018,1.018,0,0,1,.679,8.387V1.695A1.018,1.018,0,0,1,1.7.678h8.437A1.018,1.018,0,0,1,11.15,1.695Zm4.173-.045L11.828,6.434V3.67l3.495-1.908Zm0,0" transform="translate(1 3.95)"/></svg>