<svg xmlns="http://www.w3.org/2000/svg" width="13.5" height="13.499" viewBox="0 0 13.5 13.499"><defs><style>.a{fill:#056cef;}</style></defs><path class="a" d="M11.341,2.584a2.108,2.108,0,0,0-.372,4.174V9.543a3.272,3.272,0,0,1-3.375,3.151A3.272,3.272,0,0,1,4.219,9.543V9.308A3.8,3.8,0,0,0,7.594,5.535V.72a.313.313,0,0,0-.24-.306L5.893.051A.319.319,0,0,0,5.508.28l-.05.206a.319.319,0,0,0,.229.385l1.063.264V5.506a2.953,2.953,0,1,1-5.906.032v-4.4L1.9.868A.317.317,0,0,0,2.133.483l-.05-.2A.317.317,0,0,0,1.7.051L.24.414A.313.313,0,0,0,0,.72V5.535A3.8,3.8,0,0,0,3.375,9.308v.235a4.117,4.117,0,0,0,4.219,4,4.117,4.117,0,0,0,4.219-3.995V6.761a2.11,2.11,0,0,0-.472-4.177Zm.05,3.375a1.266,1.266,0,1,1,1.266-1.266A1.266,1.266,0,0,1,11.391,5.959Zm.62-1.266a.62.62,0,1,1-.62-.62A.619.619,0,0,1,12.01,4.694Z" transform="translate(0 -0.041)"/></svg>